<svg width="64" height="64" viewBox="0 0 64 64" fill="none" xmlns="http://www.w3.org/2000/svg">
<rect width="64" height="64" rx="8" fill="#1F1F38"/>
<rect x="11" y="10" width="43" height="43" rx="21.5" fill="url(#paint0_linear_260_1372)"/>
<path d="M20.4062 28.3842V42.5725C20.4062 43.1363 20.8575 43.5935 21.414 43.5935H24.9975V27.1697C24.9975 26.8122 25.3889 26.5972 25.6846 26.7923L29.8126 29.5157V43.5937H35.0757V23.7661C35.0757 23.4086 35.4671 23.1936 35.7628 23.3887L39.8908 26.1121V43.5937H43.586C44.1425 43.5937 44.5937 43.1366 44.5937 42.5727V20.4283C44.5937 19.7234 43.9054 19.2303 43.2494 19.4657L21.0776 27.4218C20.6752 27.5663 20.4062 27.9515 20.4062 28.3842Z" fill="white"/>
<rect x="39" y="35" width="20" height="20" rx="10" fill="#2CA3DD"/>
<path d="M53.0209 40.8953L44.5157 44.3224C44.1734 44.482 44.0577 44.8016 44.433 44.9751L46.6149 45.6997L51.8906 42.2927C52.1786 42.0788 52.4735 42.1359 52.2198 42.3711L47.6887 46.6581L47.5464 48.4723C47.6782 48.7524 47.9196 48.7537 48.0736 48.6145L49.3271 47.375L51.4741 49.055C51.9728 49.3634 52.2441 49.1644 52.3514 48.599L53.7596 41.6312C53.9058 40.9353 53.6565 40.6286 53.0209 40.8953V40.8953Z" fill="white"/>
<defs>
<linearGradient id="paint0_linear_260_1372" x1="54" y1="10" x2="9.40981" y2="64.2549" gradientUnits="userSpaceOnUse">
<stop stop-color="#573CFF"/>
<stop offset="1" stop-color="#82ACFF"/>
</linearGradient>
</defs>
</svg>
