<svg width="16" height="16" viewBox="0 0 16 16" fill="none" xmlns="http://www.w3.org/2000/svg">
<g clip-path="url(#clip0_229_956)">
<path d="M9.08054 7.61936C9.08054 10.1441 7.04776 12.1907 4.54035 12.1907C2.03293 12.1907 0 10.1436 0 7.61936C0 5.09513 2.03277 3.04785 4.54035 3.04785C7.04792 3.04785 9.08054 5.09466 9.08054 7.61936ZM14.0613 7.61936C14.0613 9.99581 13.0449 11.9231 11.7911 11.9231C10.5373 11.9231 9.52094 9.99581 9.52094 7.61936C9.52094 5.2429 10.5372 3.31564 11.791 3.31564C13.0447 3.31564 14.0611 5.24228 14.0611 7.61936M16.0985 7.61936C16.0985 9.74808 15.7411 11.4748 15.3001 11.4748C14.8591 11.4748 14.5018 9.74854 14.5018 7.61936C14.5018 5.49017 14.8592 3.7639 15.3001 3.7639C15.741 3.7639 16.0985 5.49002 16.0985 7.61936Z" fill="#222222"/>
</g>
<defs>
<clipPath id="clip0_229_956">
<rect width="16" height="16" fill="white"/>
</clipPath>
</defs>
</svg>
