<svg width="16" height="17" viewBox="0 0 16 17" fill="none" xmlns="http://www.w3.org/2000/svg">
<path d="M14.5 4.22344C14.0219 4.42969 13.5016 4.57813 12.9656 4.63594C13.5221 4.30537 13.9387 3.78313 14.1375 3.16719C13.6154 3.4778 13.0434 3.69561 12.4469 3.81094C12.1976 3.54442 11.8961 3.3321 11.5611 3.18721C11.2262 3.04231 10.865 2.96795 10.5 2.96876C9.02344 2.96876 7.83594 4.16563 7.83594 5.63438C7.83594 5.84063 7.86094 6.04688 7.90157 6.24532C5.69063 6.12969 3.71876 5.07344 2.40782 3.45626C2.16895 3.86425 2.04378 4.3288 2.04532 4.80157C2.04532 5.72657 2.51563 6.54219 3.23282 7.02188C2.81017 7.00524 2.39742 6.88907 2.02813 6.68282V6.71563C2.02813 8.01094 2.94376 9.08438 4.16407 9.33126C3.93494 9.39077 3.69924 9.42122 3.46251 9.42188C3.28907 9.42188 3.12501 9.40469 2.95938 9.38126C3.29688 10.4375 4.27969 11.2047 5.45001 11.2297C4.53438 11.9469 3.38751 12.3688 2.14219 12.3688C1.91876 12.3688 1.71251 12.3609 1.49844 12.3359C2.67969 13.0938 4.08126 13.5313 5.59063 13.5313C10.4906 13.5313 13.1719 9.47188 13.1719 5.94844C13.1719 5.83282 13.1719 5.71719 13.1641 5.60157C13.6828 5.22188 14.1375 4.75157 14.5 4.22344Z" fill="white"/>
</svg>
